<svg xmlns="http://www.w3.org/2000/svg" width="76" height="62.403" viewBox="0 0 76 62.403"><polygon points="75.303 20.477 67.757 20.477 67.318 20.477 67.127 20.871 61.651 32.262 56.162 20.871 55.976 20.477 55.537 20.477 48.25 20.477 47.552 20.477 47.552 21.169 47.552 25.056 47.552 25.749 48.25 25.749 49.495 25.749 49.495 42.058 48.145 42.058 47.448 42.058 47.448 42.756 47.448 46.637 47.448 47.335 48.145 47.335 56.334 47.335 57.032 47.335 57.032 46.637 57.032 42.756 57.032 42.058 56.334 42.058 54.917 42.058 54.917 30.486 61.036 43.104 61.656 44.391 62.286 43.104 68.468 30.459 68.468 42.058 67.114 42.058 66.416 42.058 66.416 42.756 66.416 46.637 66.416 47.335 67.114 47.335 75.303 47.335 76 47.335 76 46.637 76 42.756 76 42.058 75.303 42.058 73.894 42.058 73.894 25.749 75.303 25.749 76 25.749 76 25.056 76 21.169 76 20.477 75.303 20.477" fill="#fff"/><path d="M28.443,42.045v5.272H18.108V42.045H19.7L18.52,39.327H10L8.823,42.045h1.508v5.272H0V42.045H2.944l7.084-16.383H8.461V20.381h11.4v5.281H18.5l7.088,16.387h2.858ZM14.258,29.462l-1.979,4.579H16.26Z" fill="#fff"/><polygon points="66.638 0 9.176 0 8.379 0 8.379 0.793 8.379 16.142 8.379 16.939 9.176 16.939 19.1 16.939 19.888 16.939 19.888 16.142 19.888 10.44 32.148 10.44 32.148 50.899 26.446 50.899 25.653 50.899 25.653 51.692 25.653 61.611 25.653 62.403 26.446 62.403 49.359 62.403 50.161 62.403 50.161 61.611 50.161 51.692 50.161 50.899 49.359 50.899 43.666 50.899 43.666 10.44 55.85 10.44 55.85 16.07 55.85 16.867 56.647 16.867 66.638 16.867 67.431 16.867 67.431 16.07 67.431 0.793 67.431 0 66.638 0" fill="#fff"/><polygon points="45.315 55.664 47.742 53.168 47.742 60.03 45.315 57.702 45.315 55.664" fill="#b1b3b6"/><polygon points="41.261 53.349 38.833 55.741 38.833 5.671 41.261 8.094 41.261 53.349" fill="#b1b3b6"/><polygon points="13.162 4.787 10.657 2.355 63.821 2.355 60.678 4.787 13.162 4.787" fill="#b1b3b6"/><polygon points="65.107 14.652 62.68 12.333 62.68 6.151 65.107 3.646 65.107 14.652" fill="#b1b3b6"/><path d="M52.842,60.016A2.356,2.356,0,1,1,55.2,62.372h0A2.361,2.361,0,0,1,52.842,60.016Zm4.14,0a1.785,1.785,0,1,0-1.785,1.9,1.812,1.812,0,0,0,1.787-1.836C56.983,60.057,56.983,60.037,56.982,60.016Zm-2.69-1.358h.991c.639,0,.983.226.983.783a.665.665,0,0,1-.578.743.733.733,0,0,1-.115.005l.72,1.168h-.507l-.7-1.168h-.3v1.15h-.485Zm.5,1.141h.453c.294,0,.548-.036.548-.394s-.286-.367-.539-.367H54.8Z" fill="#fff"/></svg>