<svg xmlns="http://www.w3.org/2000/svg" xmlns:xlink="http://www.w3.org/1999/xlink" width="2232.399" height="1331.521" viewBox="0 0 2232.399 1331.521"><defs><pattern id="a" width="24" height="32.506" patternTransform="translate(-3.617 -19.138)" patternUnits="userSpaceOnUse" viewBox="0 0 24 32.506"><rect width="24" height="32.506" fill="none"/><path d="M14.141,33.325l.68-.68a.573.573,0,0,1,.4-.169l2.222.035A.577.577,0,0,0,18,31.946l-.035-2.222a.577.577,0,0,1,.169-.395l.68-.68a.577.577,0,0,1,.985.422l.047,4.138a1.155,1.155,0,0,1-1.173,1.168l-4.112-.067A.577.577,0,0,1,14.141,33.325Z" fill="#686de0"/><path d="M2.141,33.325l.68-.68a.573.573,0,0,1,.4-.169l2.222.035A.577.577,0,0,0,6,31.946l-.035-2.222a.577.577,0,0,1,.169-.395l.68-.68a.577.577,0,0,1,.985.422l.047,4.138a1.155,1.155,0,0,1-1.173,1.168L2.564,34.31A.577.577,0,0,1,2.141,33.325Z" fill="#686de0"/><path d="M20.141,17.071l.68-.68a.582.582,0,0,1,.4-.169l2.222.036A.577.577,0,0,0,24,15.693l-.035-2.222a.579.579,0,0,1,.169-.4l.68-.68a.577.577,0,0,1,.985.423l.047,4.138a1.153,1.153,0,0,1-1.173,1.167l-4.112-.066A.578.578,0,0,1,20.141,17.071Z" fill="#686de0"/><path d="M8.141,17.071l.68-.68a.582.582,0,0,1,.4-.169l2.222.036A.577.577,0,0,0,12,15.693l-.035-2.222a.579.579,0,0,1,.169-.4l.68-.68a.577.577,0,0,1,.985.423l.047,4.138a1.153,1.153,0,0,1-1.173,1.167l-4.112-.066A.578.578,0,0,1,8.141,17.071Z" fill="#686de0"/><path d="M-3.859,17.071l.68-.68a.582.582,0,0,1,.4-.169l2.222.036A.577.577,0,0,0,0,15.693l-.035-2.222a.579.579,0,0,1,.169-.4l.68-.68a.577.577,0,0,1,.985.423l.047,4.138A1.153,1.153,0,0,1,.676,18.123l-4.112-.066A.578.578,0,0,1-3.859,17.071Z" fill="#686de0"/><path d="M14.141.818l.68-.68a.577.577,0,0,1,.4-.169L17.439,0A.576.576,0,0,0,18-.56l-.035-2.222a.577.577,0,0,1,.169-.4l.68-.68a.577.577,0,0,1,.985.423L19.849.7A1.153,1.153,0,0,1,18.676,1.87L14.564,1.8A.577.577,0,0,1,14.141.818Z" fill="#686de0"/><path d="M2.141.818l.68-.68a.577.577,0,0,1,.4-.169L5.439,0A.576.576,0,0,0,6-.56L5.968-2.782a.577.577,0,0,1,.169-.4l.68-.68a.577.577,0,0,1,.985.423L7.849.7A1.153,1.153,0,0,1,6.676,1.87L2.564,1.8A.577.577,0,0,1,2.141.818Z" fill="#686de0"/></pattern><linearGradient id="b" y1="665.761" x2="2232.399" y2="665.761" gradientUnits="userSpaceOnUse"><stop offset="0.3" stop-color="#2930ca"/><stop offset="0.416" stop-color="#2c33cb"/><stop offset="0.509" stop-color="#363dcf"/><stop offset="0.594" stop-color="#474dd5"/><stop offset="0.674" stop-color="#5f64dd"/><stop offset="0.7" stop-color="#686de0"/><stop offset="0.701" stop-color="#676ce0"/><stop offset="0.732" stop-color="#5056d8"/><stop offset="0.766" stop-color="#3f45d2"/><stop offset="0.809" stop-color="#3239cd"/><stop offset="0.866" stop-color="#2b32cb"/><stop offset="1" stop-color="#2930ca"/></linearGradient></defs><g style="isolation:isolate"><rect width="2232.399" height="1331.521" fill="#2930ca"/><rect width="2232.399" height="1331.521" fill="url(#a)"/><rect width="2232.399" height="1331.521" fill="url(#b)" style="mix-blend-mode:darken"/><path d="M381.7,154.761c104.658,0,189.5,84.842,189.5,189.5s-84.842,189.5-189.5,189.5-189.5-84.842-189.5-189.5,84.842-189.5,189.5-189.5m0-100A288.9,288.9,0,1,0,494.417,77.552,287.78,287.78,0,0,0,381.7,54.761Zm225.25,795A118.25,118.25,0,1,1,488.7,968.011a118.25,118.25,0,0,1,118.25-118.25m0-60a177.874,177.874,0,1,0,69.4,14.032,177.2,177.2,0,0,0-69.4-14.032Zm1291.75-446a137.5,137.5,0,1,1-137.5,137.5,137.5,137.5,0,0,1,137.5-137.5m0-50a187.071,187.071,0,1,0,73,14.755,186.368,186.368,0,0,0-73-14.755Zm28.289,705.047a109.211,109.211,0,1,1-109.21,109.211,109.21,109.21,0,0,1,109.21-109.211m0-39.712a148.58,148.58,0,1,0,57.98,11.719,148.029,148.029,0,0,0-57.98-11.719Z" fill="#686de0" opacity="0.4"/></g></svg>