<svg xmlns="http://www.w3.org/2000/svg" width="485.549" height="369" viewBox="0 0 485.549 369"><ellipse cx="242.774" cy="184.5" rx="224.036" ry="184.5" fill="#aeb1ee"/><path d="M481.815,319.463h-40.4c-2.419-1.994-13.947-7.8-28.567-9.107V254.514h29.7a9.909,9.909,0,0,0,9.9-9.9V243.03a9.915,9.915,0,0,0-9.9-9.9H426.33a23.874,23.874,0,0,0-.6-4.014l0,0a4.34,4.34,0,0,0,.357-.293,3.571,3.571,0,0,0,1.085-3.152,101.378,101.378,0,0,1-.713-18.772c0-.074.009-.149.012-.223l.273-.074.253-.071a7.521,7.521,0,0,0,5.648-8.2l.654-7.61c7.379-.576,14.768-2.751,21.734-5.381,8.594-3.245,17.344-7.513,22.525-15.1s5.3-19.305-1.98-24.909c-5.7-4.394-13.623-3.78-20.815-4.134s-15.637-3.048-17.5-10c-1.848-6.912,3.989-13.58,4.324-20.727.417-8.888-8.213-16.186-17.045-17.256s-17.538,2.519-25.426,6.635c-6.067,3.166-12.334,7.083-13.86,14.332a9.293,9.293,0,0,0,4.4,10.232,8.332,8.332,0,0,0,.906.408c-.061.625-.1,1.257-.1,1.9a19.441,19.441,0,0,0,16.334,19.18c-.571,1.046-1.164,2.08-1.758,3.1-.9,1.542-1.8,3.1-2.634,4.69q-1.038.235-2.069.506a19.789,19.789,0,0,0-8.8,4.916,9.1,9.1,0,0,0-10.5,5.223l-5.441,12.562H322.949a5.947,5.947,0,0,0-5.94,5.94v38.811a5.944,5.944,0,0,0,5.94,5.941h25.7a11.645,11.645,0,0,0-4.087,6.133c-3.319,14.591-9.37,41.8-11.155,49.792a3.558,3.558,0,0,0,.731,3L331.631,300.2l-6.292-1.974a11.791,11.791,0,0,0-14.781,7.72l19.411,6.091a11.823,11.823,0,0,0-3.276,7.429H160.719a11.823,11.823,0,0,0-3.2-6.64l20-6.277a11.792,11.792,0,0,0-14.781-7.72l-6.291,1.975-2.369-12.92a3.572,3.572,0,0,0,1.067-3.378c-1.8-8.087-7.928-35.62-11.285-50.387a10.7,10.7,0,0,0-2.824-4.953c-.248-2.752-.561-5.5-.982-8.236a3.4,3.4,0,0,0-3.346-2.847h-17.3a8.675,8.675,0,0,0-.475-4.986,7.913,7.913,0,0,0-7.389-4.755h-4.06a8.3,8.3,0,0,0-1.039.526l-1.31-.588c-.408-2.523-.857-5.513-1.281-8.771a15.2,15.2,0,0,0,11.063,4.79,14.946,14.946,0,0,0,3.689-.462l3.82-.975c-.105.479-.206.958-.32,1.435a3.466,3.466,0,0,0,.649,2.975,3.41,3.41,0,0,0,2.694,1.306h32.023a3.455,3.455,0,0,0,3.4-2.9c.458-2.978.8-5.969,1.055-8.966a8.707,8.707,0,0,0,.371-17.371,134.648,134.648,0,0,0-1.426-14.6,3.455,3.455,0,0,0-3.4-2.9H125.449a3.409,3.409,0,0,0-2.694,1.305,3.468,3.468,0,0,0-.649,2.976,82.241,82.241,0,0,1,2.222,20.72l-9.007.949-.96-1.316a3.556,3.556,0,0,0,.53-3.667l-7.867-18.172-.006-.015a9.1,9.1,0,0,0-10.72-5.16,19.416,19.416,0,0,0-8.849-4.965,63.341,63.341,0,0,0-7.851-1.548,19.593,19.593,0,0,0-16.991,6.288,9.1,9.1,0,0,0-7.292,8.377L54.1,187.38a3.528,3.528,0,0,0,.679,2.293l.059,9.264a8.614,8.614,0,0,0,6.226,8.191l.263.075a100.9,100.9,0,0,1-.711,18.772,3.568,3.568,0,0,0,1.1,3.158,26.664,26.664,0,0,0-.667,4H44.937a9.915,9.915,0,0,0-9.9,9.9v1.584a9.909,9.909,0,0,0,9.9,9.9h29.7v55.854c-14.558,1.328-26.026,7.107-28.438,9.1H3.74A1.061,1.061,0,0,0,3,320.508c0,.521.326.945.732.539H130.083v0l30.754,0H481.81c.407.411.737-.01.739-.531A1.067,1.067,0,0,0,481.815,319.463Zm-335.458-10.3h-3.952l1.731-14.029,2.722,8.674-1.986.623Zm-31.408,10.3c-2.5-2.059-14.713-8.186-30.013-9.219v-55.73h18.08c-.3,1.774-.653,3.541-1.072,5.3a3.412,3.412,0,0,0,.637,2.925,3.353,3.353,0,0,0,2.649,1.284h13.953L130.9,294.763a3.566,3.566,0,0,0,1.565,1.813v12.59h-2.378v10.3Zm294.6-94.76a1.948,1.948,0,0,1-.21.424A1.948,1.948,0,0,0,409.551,224.7Zm-1.143-2.531a1.962,1.962,0,0,1,.6.362,1.982,1.982,0,0,0-1.307-.494A1.971,1.971,0,0,1,408.408,222.172Zm-64.374,72.076,1.742,14.126h-4l1.426-4.544-1.985-.623Zm11.784,14.126V296.352c.026-.014.055-.018.081-.033a3.555,3.555,0,0,0,1.607-1.861l15-39.944h30.049v55.739c-15.24,1.059-27.393,7.157-29.885,9.21H357.4V308.374ZM51.85,131.751c-2.529-6.029-2.9-13.385-.022-19.036,2.433-4.777,6.8-7.818,11.162-10.3a18.2,18.2,0,0,1,5.424-2.293,7.126,7.126,0,0,1,5.666,1.114,5.977,5.977,0,0,1,2.28,5.725,17.7,17.7,0,0,1,7.763-5.827,9,9,0,0,1,5.984-.4c2.8.935,4.873,3.763,6.026,6.8a15.159,15.159,0,0,1,1,7.337,8.81,8.81,0,0,1-1.464,4.022,19.434,19.434,0,0,1-28.63,24.378c-.085.254-.166.51-.265.759a2.608,2.608,0,0,1-.375.571,3.148,3.148,0,0,1-4.441.318l-.066-.059A35.184,35.184,0,0,1,51.85,131.751Zm99.619-6.342V54.916a7.137,7.137,0,0,1,7.128-7.129h64.949a7.137,7.137,0,0,1,7.128,7.129v70.493a7.137,7.137,0,0,1-7.128,7.129H158.6A7.137,7.137,0,0,1,151.469,125.409Zm118.808,0V54.916a7.138,7.138,0,0,1,7.129-7.129h64.949a7.137,7.137,0,0,1,7.128,7.129v70.493a7.137,7.137,0,0,1-7.128,7.129H277.406A7.138,7.138,0,0,1,270.277,125.409Z" fill="none" stroke="#2d2a2e" stroke-miterlimit="10" stroke-width="6"/><path d="M442.55,233.129H404.523c0,1.093-39.191,1.98-39.191,1.98a10.229,10.229,0,0,0-1.671,1.584,9.833,9.833,0,0,0-2.3,6.337v1.584a9.9,9.9,0,0,0,9.9,9.9H442.55a9.907,9.907,0,0,0,9.9-9.9V243.03A9.913,9.913,0,0,0,442.55,233.129Z" fill="#474557"/><rect x="402.551" y="253.722" width="10.297" height="66.533" fill="#474557"/><path d="M441.891,320.025c0,1.112-15.6.43-34.85.43s-34.851.682-34.851-.43,15.6-9.935,34.851-9.935S441.891,318.912,441.891,320.025Z" fill="#474557"/><polygon points="355.818 311.543 346.167 311.542 341.575 274.316 355.819 274.317 355.818 311.543" fill="#ffb8b8"/><path d="M338.534,308.374H357.4v11.881H326.653a11.881,11.881,0,0,1,11.881-11.881Z" fill="#2d2a2e"/><polygon points="340.391 305.854 331.127 302.947 337.932 265.827 351.606 270.118 340.391 305.854" fill="#ffb8b8"/><path d="M325.339,298.223l17.868,5.607h0l-3.53,11.25h0l-29.119-9.137h0A11.791,11.791,0,0,1,325.339,298.223Z" fill="#2d2a2e"/><path d="M416.178,226.658a29.666,29.666,0,0,0-1.19-5.495l-1.793-2.255-4.665-5.855-.2.008c-.345.016-1.777.094-3.992.266h-.024c-1.37.11-3.045.251-4.947.431-.5.055-1.025.1-1.565.156v8.126h9.9a1.984,1.984,0,0,1,1.965,1.727c.007.087.015.166.015.253A1.979,1.979,0,0,1,407.7,226H350.754a22.33,22.33,0,0,0-2.082,1.566,11.648,11.648,0,0,0-4.109,6.152c-3.319,14.591-9.37,41.8-11.155,49.792a3.553,3.553,0,0,0,1.057,3.35,3.45,3.45,0,0,0,1.151.712l7.06,2.646a3.824,3.824,0,0,0,.9.212c.039,0,.07.007.109.007a2,2,0,0,0,.219.008,3.549,3.549,0,0,0,3.3-2.27l5.573-14.622,8.587-22.543,3.4-8.916c3.937.924,36.97,8.235,48.03-3.546a12.593,12.593,0,0,0,2.537-4A16.288,16.288,0,0,0,416.178,226.658Z" fill="#2d2a2e"/><path d="M425.668,228.82c-.171-.7-.366-1.434-.592-2.17l-6.437-8.206-.2.008c-.406.024-2.333.127-5.29.372-3.355.285-8.045.745-13.311,1.466-.156.015-.32.039-.476.063-.515.071-1.038.143-1.56.222v1.465h11.926a2.021,2.021,0,0,1,2.018,1.727c.008.087.016.166.016.253a2.008,2.008,0,0,1-2.034,1.98h-35.95c-1.57.5-3.084,1.022-4.532,1.584-7.6,2.931-13.288,6.773-14.452,11.77-.391,1.68-.822,3.525-1.278,5.489-1.692,7.3-3.751,16.245-5.614,24.372v.008c-.383,1.679-.765,3.311-1.131,4.895-1.555,6.811-2.873,12.586-3.573,15.619-.016.087-.032.167-.048.254v-.281a7.367,7.367,0,0,0,.253,1.814l.539.007v.305a3.5,3.5,0,0,0,1.014,1.418,3.566,3.566,0,0,0,1.007.594L353,296.525a3.52,3.52,0,0,0,1.225.23,3.428,3.428,0,0,0,1.678-.436,3.555,3.555,0,0,0,1.607-1.861L372.659,254.1l2.349-6.266c3.924.935,36.85,8.325,47.875-3.588a13.482,13.482,0,0,0,3.5-8.768A23.849,23.849,0,0,0,425.668,228.82Z" fill="#2d2a2e"/><path d="M425.212,158.945c-.127-.151-.262-.3-.4-.444a19.383,19.383,0,0,0-16.61-5.853,62.932,62.932,0,0,0-7.849,1.544,19.775,19.775,0,0,0-8.855,4.967,19.337,19.337,0,0,0-5.87,14.415c.032,1.085.04,2.194.024,3.319,0,.523-.008,1.053-.015,1.584h7.809a4.207,4.207,0,0,1,1.006.119,4.365,4.365,0,0,1,3.351,4.237V219.68c.53.15,1.061.3,1.584.459.166.056.324.1.483.151.182.055.364.11.538.166q2.412.749,4.713,1.584H407.7a1.984,1.984,0,0,1,1.965,1.727c.538.214,1.061.427,1.576.641,1.829.761,3.564,1.521,5.156,2.258,2.146.982,4.055,1.916,5.655,2.732a3.624,3.624,0,0,0,1.624.4,3.484,3.484,0,0,0,2.059-.681,4.34,4.34,0,0,0,.357-.293,3.571,3.571,0,0,0,1.085-3.152,101.465,101.465,0,0,1-.713-18.772c.222-5.267.7-10.669,1.315-15.889.333-2.827.7-5.6,1.093-8.269.372-2.55.768-5,1.156-7.311A19.49,19.49,0,0,0,425.212,158.945Z" fill="#686de0"/><path d="M393.03,159.594a9.349,9.349,0,0,0-1.251-.435,9.108,9.108,0,0,0-10.725,5.172l-5.441,12.562-.681,1.584h18.795a4.207,4.207,0,0,1,1.006.119l.634-1.466,2.408-5.56A9.118,9.118,0,0,0,393.03,159.594Z" fill="#686de0"/><circle cx="409.93" cy="126.713" r="19.454" fill="#ffb8b8"/><path d="M429.355,182.1l-10.994.3-.8,7.8-.181,1.806-17.221,7.81-1.568.713v13.885l1.568-.452,4.956-1.426H404.7l22.051-5.936.253-.071a7.521,7.521,0,0,0,5.648-8.2l.792-9.211.047-7.133Z" fill="#ffb8b8"/><path d="M432.768,167.012a9.11,9.11,0,0,0-18.186,1.117h0l1.212,19.77a3.552,3.552,0,0,0,1.449,2.645,3.513,3.513,0,0,0,2.329.689l8.491-.522,2.574-.159a3.476,3.476,0,0,0,2.456-1.2,2.446,2.446,0,0,0,.19-.238,3.538,3.538,0,0,0,.7-2.344Z" fill="#686de0"/><path d="M400.4,220.456h-1.021v-.1c-.523.071-1.054.143-1.584.222v1.465h7.318Q402.811,221.209,400.4,220.456Zm0,0h-1.021v-.1c-.523.071-1.054.143-1.584.222v1.465h7.318Q402.811,221.209,400.4,220.456Zm7.3,0h-8.316V182.833a5.95,5.95,0,0,0-4.3-5.7,5.591,5.591,0,0,0-1.64-.237H322.949a5.947,5.947,0,0,0-5.94,5.94v38.811a5.942,5.942,0,0,0,5.94,5.94H407.7a3.568,3.568,0,0,0,3.541-3.176,2.95,2.95,0,0,0,.023-.388,3.569,3.569,0,0,0-3.564-3.564Zm1.98,3.564A1.979,1.979,0,0,1,407.7,226h-84.75a4.358,4.358,0,0,1-4.356-4.356V182.833a4.358,4.358,0,0,1,4.356-4.356h70.493a4.207,4.207,0,0,1,1.006.119,4.365,4.365,0,0,1,3.351,4.237V222.04h9.9a1.984,1.984,0,0,1,1.965,1.727c.007.087.015.166.015.253Zm-9.275-3.564h-1.021v-.1c-.523.071-1.054.143-1.584.222v1.465h7.318Q402.811,221.209,400.4,220.456Z" fill="#2d2a2e"/><path d="M409.664,223.767a1.984,1.984,0,0,0-1.965-1.727h-9.9V182.833a4.365,4.365,0,0,0-3.351-4.237,4.207,4.207,0,0,0-1.006-.119H322.949a4.358,4.358,0,0,0-4.356,4.356v38.811A4.358,4.358,0,0,0,322.949,226H407.7a1.979,1.979,0,0,0,1.98-1.98h0C409.679,223.933,409.671,223.854,409.664,223.767Z" fill="#f5f5fc"/><circle cx="358.478" cy="201.943" r="4.752" fill="#686de0"/><path d="M405.776,119c-4.519,4.036-10.577,8.369-16.11,5.412a9.293,9.293,0,0,1-4.4-10.232c1.526-7.249,7.793-11.166,13.86-14.332,7.888-4.116,16.593-7.706,25.426-6.635s17.462,8.368,17.045,17.256c-.335,7.147-6.172,13.815-4.324,20.727,1.859,6.957,10.3,9.651,17.5,10s15.11-.26,20.815,4.134c7.278,5.6,7.162,17.324,1.98,24.909s-13.931,11.854-22.525,15.1c-11.386,4.3-23.9,7.405-35.655,4.244s-22.044-14.437-20.32-26.485c.728-5.089,3.406-9.658,5.99-14.1s5.183-9.079,5.725-14.192c.452-4.26-.9-8.963-4.043-11.707a3.513,3.513,0,0,1-1-4.013Z" fill="#2d2a2e"/><path d="M3.74,321.047H481.81c.407.411.737-.01.739-.531a1.068,1.068,0,0,0-.734-1.053H3.74A1.061,1.061,0,0,0,3,320.508c0,.521.326.945.732.539Z" fill="#474557"/><path d="M35.036,243.03v1.584a9.909,9.909,0,0,0,9.9,9.9h71.285a9.9,9.9,0,0,0,9.9-9.9V243.03a9.833,9.833,0,0,0-2.3-6.337,10.2,10.2,0,0,0-1.672-1.584s-39.191-.887-39.191-1.98H44.937A9.915,9.915,0,0,0,35.036,243.03Z" fill="#474557"/><rect x="74.639" y="253.722" width="10.297" height="66.533" fill="#474557"/><path d="M45.724,320.025c0,1.112,15.6.43,34.851.43s34.85.682,34.85-.43-15.6-9.935-34.85-9.935S45.724,318.912,45.724,320.025Z" fill="#474557"/><polygon points="132.461 311.543 142.112 311.543 146.703 274.316 132.459 274.317 132.461 311.543" fill="#a0616a"/><path d="M160.837,321.047l-30.754,0h0V309.166h18.871a11.883,11.883,0,0,1,11.883,11.882Z" fill="#2d2a2e"/><polygon points="147.688 306.458 156.953 303.55 150.148 266.43 136.474 270.722 147.688 306.458" fill="#a0616a"/><path d="M177.521,306.546,148.4,315.684h0l-3.531-11.25h0l17.868-5.608a11.792,11.792,0,0,1,14.781,7.72Z" fill="#2d2a2e"/><path d="M141.192,289.219l-17.764-46.63c-3.985.936-37.406,8.332-48.6-3.586-3.837-4.085-4.585-10-2.224-17.59l6.532-8.209.2.01c2.47.13,60.541,3.385,64.522,20.9,3.357,14.767,9.486,42.3,11.285,50.387a3.576,3.576,0,0,1-2.229,4.105l-7.144,2.679a3.527,3.527,0,0,1-1.245.227A3.576,3.576,0,0,1,141.192,289.219Z" fill="#2d2a2e"/><path d="M130.9,294.763l-17.763-46.629c-3.986.936-37.407,8.33-48.6-3.587-3.836-4.085-4.585-10-2.224-17.59l6.533-8.209.2.011c2.47.13,60.541,3.385,64.522,20.9,3.356,14.768,9.486,42.3,11.284,50.387a3.577,3.577,0,0,1-2.229,4.106l-7.143,2.678a3.533,3.533,0,0,1-1.246.227A3.575,3.575,0,0,1,130.9,294.763Z" fill="#2d2a2e"/><path d="M114.917,204.3a15.205,15.205,0,0,1-13.057-7.423l-5.641-9.557,13.409-7.329,5.693,7.807,38.632-4.07a8.33,8.33,0,0,1,.633-.978h0a8.723,8.723,0,0,1,6.236-3.416,8.625,8.625,0,0,1,6.726,2.385,8.713,8.713,0,0,1-11.289,13.239,8.012,8.012,0,0,1-.652-.554l-37,9.433A14.9,14.9,0,0,1,114.917,204.3Z" fill="#a0616a"/><path d="M62.057,229.419a3.571,3.571,0,0,1-1.441-3.444c2.2-14.529-.331-35.341-2.847-50.243A19.639,19.639,0,0,1,79.6,152.952a63.154,63.154,0,0,1,7.851,1.547h0a19.481,19.481,0,0,1,14.718,19.38c-.376,14.379,2.544,32.321,3.817,39.366a3.581,3.581,0,0,1-.661,2.781,3.478,3.478,0,0,1-2.451,1.386c-14.105,1.44-29.316,8.318-37.128,12.29a3.566,3.566,0,0,1-1.623.4A3.508,3.508,0,0,1,62.057,229.419Z" fill="#c7c7d3"/><path d="M100.132,191.946a3.545,3.545,0,0,1-1.96-1.9l-7.866-18.172a9.109,9.109,0,0,1,16.712-7.251l.006.015,7.867,18.172a3.569,3.569,0,0,1-1.855,4.686l-10.177,4.4a3.538,3.538,0,0,1-2.727.044Z" fill="#c7c7d3"/><circle cx="78.15" cy="127.316" r="19.454" fill="#a0616a"/><path d="M66.394,144.6a3.148,3.148,0,0,1-4.441.318l-.066-.059A35.184,35.184,0,0,1,51.85,131.751c-2.529-6.029-2.9-13.385-.022-19.036,2.433-4.777,6.8-7.817,11.162-10.3a18.2,18.2,0,0,1,5.424-2.293,7.126,7.126,0,0,1,5.666,1.114,5.977,5.977,0,0,1,2.28,5.725,17.7,17.7,0,0,1,7.764-5.827,9,9,0,0,1,5.983-.4c2.8.935,4.873,3.763,6.026,6.8a15.159,15.159,0,0,1,1,7.337,8.816,8.816,0,0,1-3.382,6.076c-2.284,1.577-5.227,1.416-7.883.719s-5.235-1.88-7.938-2.21-5.7.385-7.308,2.8c-1.134,1.7-1.4,3.934-1.633,6.066L67.78,139.4a14.669,14.669,0,0,1-1.012,4.626A2.6,2.6,0,0,1,66.394,144.6Z" fill="#2d2a2e"/><path d="M136.71,264.019H105.23a3.353,3.353,0,0,1-2.649-1.284,3.409,3.409,0,0,1-.637-2.925,80.715,80.715,0,0,0,0-37.522,3.41,3.41,0,0,1,.637-2.924,3.35,3.35,0,0,1,2.649-1.284h31.48a3.4,3.4,0,0,1,3.346,2.847,132.257,132.257,0,0,1,0,40.245A3.4,3.4,0,0,1,136.71,264.019Z" fill="#c7c7d3"/><path d="M112.658,235.562v-.906a2.353,2.353,0,0,1,2.383-2.319H131.66a2.353,2.353,0,0,1,2.383,2.319v.906a2.353,2.353,0,0,1-2.383,2.319H115.041A2.353,2.353,0,0,1,112.658,235.562Z" fill="#f5f5fc"/><path d="M112.658,245.067v-.906a2.354,2.354,0,0,1,2.383-2.32H131.66a2.354,2.354,0,0,1,2.383,2.32v.906a2.354,2.354,0,0,1-2.383,2.319H115.041A2.354,2.354,0,0,1,112.658,245.067Z" fill="#f5f5fc"/><path d="M122.755,207.269a3.466,3.466,0,0,1-.649-2.975,82.2,82.2,0,0,0,0-38.169,3.468,3.468,0,0,1,.649-2.976,3.409,3.409,0,0,1,2.694-1.305h32.023a3.455,3.455,0,0,1,3.4,2.9,134.5,134.5,0,0,1,0,40.939,3.455,3.455,0,0,1-3.4,2.9H125.449A3.41,3.41,0,0,1,122.755,207.269Z" fill="#686de0"/><path d="M151.5,178.477H134.805a2.32,2.32,0,0,1-2.346-2.287v-.971a2.321,2.321,0,0,1,2.346-2.287H151.5a2.321,2.321,0,0,1,2.346,2.287v.971A2.32,2.32,0,0,1,151.5,178.477Z" fill="#f5f5fc"/><path d="M151.5,188.774H134.805a2.321,2.321,0,0,1-2.346-2.287v-.971a2.321,2.321,0,0,1,2.346-2.287H151.5a2.321,2.321,0,0,1,2.346,2.287v.971A2.321,2.321,0,0,1,151.5,188.774Z" fill="#f5f5fc"/><path d="M107.966,224.609a8.724,8.724,0,0,1-5.175-4.877,8.218,8.218,0,0,1-.285-.807l-41.442-11.8a8.617,8.617,0,0,1-6.226-8.193l-.1-16,15.276.408,1,9.611,35.437,15.91a8.3,8.3,0,0,1,1.039-.526h4.06a7.913,7.913,0,0,1,7.389,4.755,8.72,8.72,0,0,1-10.967,11.515Z" fill="#a0616a"/><path d="M54.987,189.96a3.542,3.542,0,0,1-.887-2.58l1.215-19.764A9.109,9.109,0,0,1,73.5,168.7l0,.033L72.283,188.5a3.569,3.569,0,0,1-3.776,3.338l-11.068-.68a3.541,3.541,0,0,1-2.452-1.2Z" fill="#c7c7d3"/><path d="M223.546,49.371H158.6a5.55,5.55,0,0,0-5.544,5.545v70.493a5.549,5.549,0,0,0,5.544,5.544h64.949a5.549,5.549,0,0,0,5.544-5.544V54.916A5.55,5.55,0,0,0,223.546,49.371Z" fill="#f5f5fc"/><path d="M223.546,47.787H158.6a7.137,7.137,0,0,0-7.128,7.129v70.493a7.137,7.137,0,0,0,7.128,7.129h64.949a7.137,7.137,0,0,0,7.128-7.129V54.916A7.137,7.137,0,0,0,223.546,47.787Zm5.544,77.622a5.549,5.549,0,0,1-5.544,5.544H158.6a5.549,5.549,0,0,1-5.544-5.544V54.916a5.55,5.55,0,0,1,5.544-5.545h64.949a5.55,5.55,0,0,1,5.544,5.545Z" fill="#2d2a2e"/><path d="M342.354,49.371H277.406a5.552,5.552,0,0,0-5.545,5.545v70.493a5.55,5.55,0,0,0,5.545,5.544h64.948a5.55,5.55,0,0,0,5.545-5.544V54.916A5.552,5.552,0,0,0,342.354,49.371Z" fill="#f5f5fc"/><path d="M342.354,47.787H277.406a7.138,7.138,0,0,0-7.129,7.129v70.493a7.138,7.138,0,0,0,7.129,7.129h64.948a7.137,7.137,0,0,0,7.129-7.129V54.916A7.137,7.137,0,0,0,342.354,47.787Zm5.545,77.622a5.55,5.55,0,0,1-5.545,5.544H277.406a5.55,5.55,0,0,1-5.545-5.544V54.916a5.552,5.552,0,0,1,5.545-5.545h64.948a5.552,5.552,0,0,1,5.545,5.545Z" fill="#2d2a2e"/><path d="M171.666,77.094H165.33a3.57,3.57,0,0,1-3.565-3.565V67.193a3.569,3.569,0,0,1,3.565-3.564h6.336a3.567,3.567,0,0,1,3.564,3.564v6.336A3.569,3.569,0,0,1,171.666,77.094Z" fill="#686de0"/><path d="M171.666,96.9H165.33a3.569,3.569,0,0,1-3.565-3.564V86.994a3.569,3.569,0,0,1,3.565-3.564h6.336a3.568,3.568,0,0,1,3.564,3.564v6.337A3.568,3.568,0,0,1,171.666,96.9Z" fill="#c7c7d3"/><path d="M218.021,73.133H188.676a2.325,2.325,0,0,1-2.357-2.286v-.971a2.325,2.325,0,0,1,2.357-2.287h29.345a2.325,2.325,0,0,1,2.357,2.287v.971A2.325,2.325,0,0,1,218.021,73.133Z" fill="#686de0"/><path d="M291.267,76.3H284.93a3.568,3.568,0,0,1-3.564-3.564V66.4a3.569,3.569,0,0,1,3.564-3.565h6.337a3.569,3.569,0,0,1,3.564,3.565v6.336A3.568,3.568,0,0,1,291.267,76.3Z" fill="#c7c7d3"/><path d="M337.621,72.341H308.277a2.325,2.325,0,0,1-2.357-2.287v-.971a2.324,2.324,0,0,1,2.357-2.286h29.344a2.324,2.324,0,0,1,2.357,2.286v.971A2.325,2.325,0,0,1,337.621,72.341Z" fill="#c7c7d3"/><path d="M337.613,91.351H282.939a2.33,2.33,0,0,1-2.365-2.287v-.971a2.33,2.33,0,0,1,2.365-2.287h54.674a2.33,2.33,0,0,1,2.365,2.287v.971A2.33,2.33,0,0,1,337.613,91.351Z" fill="#686de0"/><path d="M337.613,104.816H282.939a2.33,2.33,0,0,1-2.365-2.287v-.971a2.328,2.328,0,0,1,2.365-2.287h54.674a2.328,2.328,0,0,1,2.365,2.287v.971A2.33,2.33,0,0,1,337.613,104.816Z" fill="#c7c7d3"/><path d="M337.613,118.28H282.939a2.328,2.328,0,0,1-2.365-2.286v-.971a2.328,2.328,0,0,1,2.365-2.287h54.674a2.328,2.328,0,0,1,2.365,2.287v.971A2.328,2.328,0,0,1,337.613,118.28Z" fill="#c7c7d3"/><path d="M218.021,92.935H188.676a2.327,2.327,0,0,1-2.357-2.287v-.971a2.327,2.327,0,0,1,2.357-2.287h29.345a2.327,2.327,0,0,1,2.357,2.287v.971A2.327,2.327,0,0,1,218.021,92.935Z" fill="#c7c7d3"/><path d="M171.666,116.7H165.33a3.569,3.569,0,0,1-3.565-3.564V106.8a3.57,3.57,0,0,1,3.565-3.565h6.336a3.569,3.569,0,0,1,3.564,3.565v6.336A3.567,3.567,0,0,1,171.666,116.7Z" fill="#c7c7d3"/><path d="M218.021,112.736H188.676a2.325,2.325,0,0,1-2.357-2.287v-.971a2.325,2.325,0,0,1,2.357-2.286h29.345a2.325,2.325,0,0,1,2.357,2.286v.971A2.325,2.325,0,0,1,218.021,112.736Z" fill="#c7c7d3"/></svg>