<svg xmlns="http://www.w3.org/2000/svg" width="63.088" height="48.486" viewBox="0 0 63.088 48.486"><path d="M48.847,48.486c-9.831,0-14.241-4.41-14.241-14.241,0-11.868-1.187-18.988,2.374-24.922C42.543.05,65.462-1.358,59.528,1.015,57.155,2.2,45.287,6.949,45.287,17.63c0,1.187,0,2.374,2.373,2.374,9.832,0,15.428,4.409,15.428,14.241S58.679,48.486,48.847,48.486ZM28.672,34.245c0-9.832-5.6-14.241-15.428-14.241-2.373,0-2.373-1.187-2.373-2.374C10.871,6.949,22.738,2.2,25.112,1.015,31.046-1.358,8.127.05,2.563,9.323-1,15.257.19,22.377.19,34.245c0,9.831,4.41,14.241,14.241,14.241S28.672,44.076,28.672,34.245Z" fill="#686de0"/></svg>