<svg xmlns="http://www.w3.org/2000/svg" width="461.529" height="369" viewBox="0 0 461.529 369"><ellipse cx="230.764" cy="184.5" rx="224.036" ry="184.5" fill="#aeb1ee"/><path d="M458.469,216.117a2.11,2.11,0,0,0-.395-1.808,2.071,2.071,0,0,0-1.637-.794H440.918a5.2,5.2,0,0,0-2.287-2.9,4.6,4.6,0,0,0-.709-.318l-.018-.805a2.009,2.009,0,0,0,.3-.08,2.05,2.05,0,0,0,.885-.634,2.3,2.3,0,0,0,.513-1.624l-2.136-32.374-6.924-22.168A6.045,6.045,0,0,0,425,148.306a13.734,13.734,0,0,0-1.636-1.127l-5.5-3.227-2.5-3.747a5.392,5.392,0,0,0-1.165-1.244v-5.026c.395.1.792.186,1.187.275a1.464,1.464,0,0,0,2.15-1.281l1.517-5.771a36.64,36.64,0,0,0,1.168-5.63c.365-3.665-.5-7.608-3.062-10.258a8.745,8.745,0,0,0-2.96-1.987V71.758a16.124,16.124,0,0,0-16.106-16.106h-294.3A16.124,16.124,0,0,0,87.687,71.758v89.565l-7.529-4.21a6.086,6.086,0,0,0-1.364-.789,11.857,11.857,0,0,0-9.422-2.482l-4.339.723a11.637,11.637,0,0,0-7.555,4.714,16.541,16.541,0,0,0-1.023,1.632,6.529,6.529,0,0,0-5.8,5.716l-3.046,11.439a2.44,2.44,0,0,0-.064.339,2.351,2.351,0,0,0,2.071,2.6l.322.037-.644,40.418c-.12.122-.231.25-.337.38l-9.849-7.72a2.1,2.1,0,0,0-2.713.11,81.752,81.752,0,0,0-15.348,19.581,2.1,2.1,0,0,0,.542,2.66l15.317,12a2.072,2.072,0,0,0,1.778.386,2.106,2.106,0,0,0,1.425-1.18,49.944,49.944,0,0,1,13.107-17.267,5.293,5.293,0,0,0,4.232-2.332,1.944,1.944,0,0,0,.93.509L48.1,252.129,30.417,287.968A2.2,2.2,0,0,0,31.4,290.9l.946.473-3.378,6.893L27.6,297.6l-3.412,6.962,15.936,7.812H20.575a.488.488,0,0,0,0,.976h82.97a.488.488,0,0,0,0-.976H99.1a7.5,7.5,0,0,0-7.488-7.074H87.822l.577-4.682,1.125-.14a2.186,2.186,0,0,0,1.991-2.184l.9-69.739c.379.086.766.164,1.135.26a1.953,1.953,0,0,0,2.419-2.276l-11.018-53.67.209-.27,3.97,2.83a3.891,3.891,0,0,0,2.2.715,16.092,16.092,0,0,0,12.463,5.918H390.919l-6.981,25.556a2.2,2.2,0,0,0,.448,1.989l-.893,2.781a4.935,4.935,0,0,0,7.038,6.82h0a4.886,4.886,0,0,0,1.787-3.171c.048.056.09.117.144.169a2.172,2.172,0,0,0,1.29.6l5.036,82.41a1.952,1.952,0,0,0,1.948,1.833h.614l.487,3.955H397.8a7.507,7.507,0,0,0-7.5,7.372h-26.62a.488.488,0,0,0,0,.976h82.97a.488.488,0,0,0,0-.976H427.158V305h-1.526v-4.675l.458.041c.048,0,.1.007.144.008a1.952,1.952,0,0,0,1.985-1.919l1.379-81.813a2.171,2.171,0,0,0,2.03-2.745l-1.7-6.5a88.551,88.551,0,0,1-2.846-24.273l3.294,24.785a2.148,2.148,0,0,0,1.15,1.676l.387,4.236a5.172,5.172,0,0,0,2.383,5.67c.026.014.054.025.08.039a81.736,81.736,0,0,0,.538,20.627,2.1,2.1,0,0,0,2.068,1.76h19.46a2.071,2.071,0,0,0,1.637-.794,2.1,2.1,0,0,0,.394-1.808A49.9,49.9,0,0,1,458.469,216.117ZM57.561,222.4a5.239,5.239,0,0,0-.553-.74l1.385-36.607,3.839,13.738-4.6,23.746C57.61,222.5,57.588,222.448,57.561,222.4Zm23.795,82.9H79.83v7.074H41.818a7.5,7.5,0,0,0-3.635-9.587h0l-3.621-1.775,4.2-6.427.908.454a2.206,2.206,0,0,0,2.927-.946L72.235,237.5a.732.732,0,0,1,1.38.315l4.634,61.672a2.2,2.2,0,0,0,2.191,2.1c.072,0,.143,0,.215-.011l.7-.087Zm309.832-93.1a2.142,2.142,0,0,0,.572-.1l.013.956a4.983,4.983,0,0,0-.488-.741C391.255,212.268,391.22,212.233,391.188,212.2ZM415.374,305h0a7.492,7.492,0,0,0-5.786,2.723V305h-1.526v-3.955h.183a1.952,1.952,0,0,0,1.951-1.879l2.049-54.089a.488.488,0,0,1,.974-.019l4.1,52.878a1.949,1.949,0,0,0,1.431,1.732l.658,5.332Z" fill="none" stroke="#2d2a2e" stroke-miterlimit="10" stroke-width="6"/><path d="M35.354,133.8c3.077-.922,6.382-.179,9.492.625a37.567,37.567,0,0,0,5.593,1.157,13.811,13.811,0,0,0,3.609,9.218c3.184,3.352,7.872,4.661,12.559,4.973A12,12,0,0,0,80.251,135.54a9.872,9.872,0,0,0,2.058-7.724,12.2,12.2,0,0,0-8.036-9.022,17.392,17.392,0,0,0-12.364.673,19.38,19.38,0,0,0-9.742,8.722,10.116,10.116,0,0,1-1.457-.8c-2.308-1.536-4.181-3.724-6.677-4.928-4.4-2.123-9.724-.711-14.009,1.64s-8.081,5.6-12.607,7.446S7.117,133.482,3.691,130A12.558,12.558,0,0,0,22.1,144.82C27.054,141.8,29.793,135.467,35.354,133.8Z" fill="none" stroke="#2d2a2e" stroke-miterlimit="10" stroke-width="6"/><path d="M398.093,182.06h-294.3a16.124,16.124,0,0,1-16.106-16.106v-94.2a16.124,16.124,0,0,1,16.106-16.106h294.3A16.124,16.124,0,0,1,414.2,71.758v94.2A16.124,16.124,0,0,1,398.093,182.06Z" fill="#e2e2ed"/><path d="M104.281,62a9.772,9.772,0,0,0-9.761,9.761v94.2a9.772,9.772,0,0,0,9.761,9.761h294.3a9.772,9.772,0,0,0,9.761-9.761v-94.2A9.772,9.772,0,0,0,398.581,62Z" fill="#f5f5fc"/><path d="M141.2,101.4a10.692,10.692,0,1,1,10.691-10.691h0A10.7,10.7,0,0,1,141.2,101.4Zm0-19.958a9.267,9.267,0,1,0,9.266,9.267h0A9.278,9.278,0,0,0,141.2,81.444Z" fill="#c7c7d3"/><path d="M140.963,88.284h-.02l-1.128.609-.17-.669,1.418-.758h.749v6.49h-.849Z" fill="#c7c7d3"/><path d="M126.6,118.663a1.255,1.255,0,1,0-1.211-1.3q0,.044,0,.087A1.256,1.256,0,0,0,126.6,118.663Z" fill="#e2e2ed"/><path d="M126.6,126.5a1.255,1.255,0,1,0-1.211-1.3q0,.043,0,.087A1.256,1.256,0,0,0,126.6,126.5Z" fill="#e2e2ed"/><path d="M126.6,134.344a1.255,1.255,0,1,0-1.211-1.3q0,.043,0,.087A1.254,1.254,0,0,0,126.6,134.344Z" fill="#e2e2ed"/><path d="M156.294,118.122H133.485a.713.713,0,1,1,0-1.426h22.809a.713.713,0,0,1,0,1.426Z" fill="#e2e2ed"/><path d="M156.294,125.962H133.485a.713.713,0,1,1,0-1.425h22.811a.713.713,0,0,1,0,1.425Z" fill="#e2e2ed"/><path d="M156.294,133.8H133.485a.713.713,0,1,1,0-1.426h22.809a.713.713,0,0,1,.006,1.426h-.006Z" fill="#e2e2ed"/><path d="M207.425,99.938a10.692,10.692,0,1,1,10.692-10.691,10.691,10.691,0,0,1-10.692,10.691Zm0-19.958a9.267,9.267,0,1,0,9.266,9.267h0a9.276,9.276,0,0,0-9.266-9.267Z" fill="#c7c7d3"/><path d="M205.534,92.547v-.54l.688-.669c1.659-1.577,2.407-2.417,2.417-3.395a1.157,1.157,0,0,0-1.033-1.269,1.145,1.145,0,0,0-.255,0,2.215,2.215,0,0,0-1.378.548l-.28-.618a2.85,2.85,0,0,1,1.838-.66,1.827,1.827,0,0,1,1.981,1.658,1.752,1.752,0,0,1,.006.229c0,1.2-.869,2.167-2.237,3.485l-.519.48v.019h2.916v.73Z" fill="#c7c7d3"/><path d="M235.733,157.152H179.118a4.4,4.4,0,0,1-4.393-4.393V119.083a4.4,4.4,0,0,1,4.393-4.393h56.615a4.4,4.4,0,0,1,4.392,4.393v33.676A4.4,4.4,0,0,1,235.733,157.152Z" fill="#f5f5fc"/><path d="M226.671,123.8H188.18a.713.713,0,0,1,0-1.426h38.492a.713.713,0,0,1,0,1.426Z" fill="#e2e2ed"/><path d="M226.671,130.219H188.18a.713.713,0,0,1,0-1.426h38.492a.713.713,0,0,1,0,1.426Z" fill="#e2e2ed"/><path d="M226.671,136.634H188.18a.713.713,0,0,1,0-1.426h38.492a.713.713,0,0,1,0,1.426h0Z" fill="#e2e2ed"/><path d="M226.671,143.049H188.18a.713.713,0,0,1,0-1.426h38.492a.713.713,0,0,1,0,1.426Z" fill="#e2e2ed"/><path d="M226.671,149.464H188.18a.713.713,0,0,1,0-1.426h38.491a.713.713,0,0,1,0,1.426h0Z" fill="#e2e2ed"/><path d="M235.733,157.152H179.118a4.4,4.4,0,0,1-4.393-4.393V119.083a4.4,4.4,0,0,1,4.393-4.393h56.615a4.4,4.4,0,0,1,4.392,4.393v33.676A4.4,4.4,0,0,1,235.733,157.152Zm-56.615-41.485a3.421,3.421,0,0,0-3.417,3.416v33.676a3.422,3.422,0,0,0,3.417,3.417h56.615a3.421,3.421,0,0,0,3.416-3.417V119.083a3.419,3.419,0,0,0-3.416-3.416Z" fill="#e2e2ed"/><path d="M279.059,99.938A10.692,10.692,0,1,1,289.75,89.247,10.692,10.692,0,0,1,279.059,99.938Zm0-19.958a9.267,9.267,0,1,0,9.266,9.267h0a9.277,9.277,0,0,0-9.266-9.267Z" fill="#c7c7d3"/><path d="M277.271,91.483a2.937,2.937,0,0,0,1.438.409c1.129,0,1.478-.719,1.468-1.258-.01-.909-.829-1.3-1.677-1.3h-.49v-.659h.49c.639,0,1.448-.329,1.448-1.1,0-.52-.33-.979-1.139-.979a2.377,2.377,0,0,0-1.3.43l-.23-.639a3.081,3.081,0,0,1,1.7-.5c1.278,0,1.857.759,1.857,1.548a1.613,1.613,0,0,1-1.2,1.528v.02a1.688,1.688,0,0,1,1.448,1.667c0,1.038-.809,1.947-2.366,1.947a3.3,3.3,0,0,1-1.687-.439Z" fill="#c7c7d3"/><path d="M263.26,147.745a1.255,1.255,0,1,0-1.21-1.3q0,.043,0,.087A1.252,1.252,0,0,0,263.26,147.745Z" fill="#e2e2ed"/><path d="M292.95,147.2H270.141a.713.713,0,0,1,0-1.426h22.81a.713.713,0,1,1,0,1.426h0Z" fill="#e2e2ed"/><path d="M299.069,137.629H259.048a3.419,3.419,0,0,1-3.416-3.416V118.107a3.421,3.421,0,0,1,3.416-3.417h40.021a3.421,3.421,0,0,1,3.416,3.417v16.106A3.419,3.419,0,0,1,299.069,137.629Zm-40.021-21.962a2.442,2.442,0,0,0-2.44,2.44v16.106a2.442,2.442,0,0,0,2.44,2.44h40.021a2.442,2.442,0,0,0,2.44-2.44V118.107a2.442,2.442,0,0,0-2.44-2.44Z" fill="#e2e2ed"/><rect x="254.747" y="125.708" width="48.687" height="0.976" transform="translate(-27.205 125.828) rotate(-24.262)" fill="#e2e2ed"/><rect x="278.662" y="101.787" width="0.976" height="48.566" transform="translate(48.147 327.208) rotate(-65.352)" fill="#e2e2ed"/><path d="M331.951,126.818a.744.744,0,0,0-.1-.156h0l-5.346-5.346a.713.713,0,1,0-1.011,1l0,0,4.129,4.129H311.385a.713.713,0,0,0,0,1.426h18.237l-3.773,3.772a.713.713,0,0,0,1.006,1.01l0,0,4.989-4.989h0A.7.7,0,0,0,331.951,126.818Z" fill="#c7c7d3"/><path d="M377.47,112.809h-.334v-9.151a5.3,5.3,0,0,0-5.3-5.3H352.452a5.3,5.3,0,0,0-5.3,5.3h0v50.2a5.3,5.3,0,0,0,5.3,5.3H371.84a5.3,5.3,0,0,0,5.3-5.3V119.322h.334Z" fill="#474557"/><path d="M376.009,103.694v50.13a3.955,3.955,0,0,1-3.955,3.955H352.573a3.956,3.956,0,0,1-3.956-3.955v-50.13a3.956,3.956,0,0,1,3.956-3.955h2.363a1.881,1.881,0,0,0,1.74,2.589h11.107a1.88,1.88,0,0,0,1.74-2.589h2.531A3.955,3.955,0,0,1,376.009,103.694Z" fill="#f5f5fc"/><path d="M120.683,161.61a2.145,2.145,0,0,1-.4-1.838,50.728,50.728,0,0,0,0-23.576,2.145,2.145,0,0,1,.4-1.838,2.108,2.108,0,0,1,1.664-.807h19.78a2.134,2.134,0,0,1,2.1,1.789,83.1,83.1,0,0,1,0,25.288,2.134,2.134,0,0,1-2.1,1.789h-19.78A2.108,2.108,0,0,1,120.683,161.61Z" fill="#686de0"/><path d="M138.31,144.2H127.89a1.466,1.466,0,0,1-1.464-1.465v-.621a1.465,1.465,0,0,1,1.464-1.464h10.42a1.463,1.463,0,0,1,1.464,1.464v.621A1.465,1.465,0,0,1,138.31,144.2Z" fill="#f5f5fc"/><path d="M138.31,150.326H127.89a1.466,1.466,0,0,1-1.464-1.465v-.621a1.466,1.466,0,0,1,1.464-1.465h10.42a1.465,1.465,0,0,1,1.464,1.465v.621A1.465,1.465,0,0,1,138.31,150.326Z" fill="#f5f5fc"/><path d="M303.621,179.635a81.769,81.769,0,0,1,0-24.879,2.1,2.1,0,0,1,2.068-1.76h19.46a2.073,2.073,0,0,1,1.637.793,2.11,2.11,0,0,1,.395,1.808,49.915,49.915,0,0,0,0,23.2,2.106,2.106,0,0,1-.394,1.808,2.073,2.073,0,0,1-1.637.793h-19.46A2.1,2.1,0,0,1,303.621,179.635Z" fill="#686de0"/><path d="M319.516,165.642H309.3a1.466,1.466,0,0,1-1.464-1.464v-.572a1.466,1.466,0,0,1,1.464-1.465h10.212a1.466,1.466,0,0,1,1.464,1.465v.572A1.466,1.466,0,0,1,319.516,165.642Z" fill="#f5f5fc"/><path d="M21.043,233.812a81.733,81.733,0,0,1,15.348-19.581,2.1,2.1,0,0,1,2.713-.11l15.316,12a2.074,2.074,0,0,1,.8,1.635,2.109,2.109,0,0,1-.806,1.666A49.947,49.947,0,0,0,40.1,247.683a2.106,2.106,0,0,1-1.425,1.18,2.072,2.072,0,0,1-1.778-.386l-15.317-12A2.1,2.1,0,0,1,21.043,233.812Z" fill="#c7c7d3"/><path d="M42.277,231.911l-8.037-6.3a1.466,1.466,0,0,1-.249-2.055l.353-.451a1.466,1.466,0,0,1,2.055-.249l8.038,6.3a1.467,1.467,0,0,1,.249,2.056l-.353.45A1.467,1.467,0,0,1,42.277,231.911Z" fill="#f5f5fc"/><path d="M38.561,236.653l-8.038-6.3a1.467,1.467,0,0,1-.249-2.056l.353-.45a1.467,1.467,0,0,1,2.056-.249l8.037,6.3a1.465,1.465,0,0,1,.249,2.055l-.353.451A1.466,1.466,0,0,1,38.561,236.653Z" fill="#f5f5fc"/><path d="M434.909,240.154a81.769,81.769,0,0,1,0-24.879,2.1,2.1,0,0,1,2.068-1.76h19.46a2.071,2.071,0,0,1,1.637.794,2.11,2.11,0,0,1,.395,1.808,49.9,49.9,0,0,0,0,23.2,2.1,2.1,0,0,1-.394,1.808,2.071,2.071,0,0,1-1.637.794h-19.46A2.1,2.1,0,0,1,434.909,240.154Z" fill="#c7c7d3"/><path d="M450.8,226.161H440.592a1.465,1.465,0,0,1-1.464-1.464v-.572a1.466,1.466,0,0,1,1.464-1.464H450.8a1.466,1.466,0,0,1,1.464,1.464v.572A1.465,1.465,0,0,1,450.8,226.161Z" fill="#f5f5fc"/><path d="M440.625,217.4a5.213,5.213,0,0,0-1.994-6.78,4.5,4.5,0,0,0-.709-.317l-.4-17.722-7.078,5.212,1.465,16.03a5.173,5.173,0,0,0,2.383,5.67,4.533,4.533,0,0,0,6.165-1.758C440.517,217.621,440.573,217.509,440.625,217.4Z" fill="#a0616a"/><path d="M437.642,209.526l-5.074.306a2.155,2.155,0,0,1-2.2-1.926l-4.213-31.7-6.808-19.336a6.7,6.7,0,0,1,.176-4.946,6.013,6.013,0,0,1,3.444-3.292,5.9,5.9,0,0,1,7.567,3.978l6.924,22.168,2.136,32.374a2.3,2.3,0,0,1-.513,1.624,2.05,2.05,0,0,1-.885.634A1.966,1.966,0,0,1,437.642,209.526Z" fill="#474557"/><polygon points="408.062 306.954 402.078 306.954 399.232 283.874 408.063 283.875 408.062 306.954" fill="#a0616a"/><path d="M409.588,312.754H390.294v-.244A7.509,7.509,0,0,1,397.8,305h11.784Z" fill="#474557"/><polygon points="425.632 306.954 419.648 306.954 416.802 283.874 425.633 283.875 425.632 306.954" fill="#a0616a"/><path d="M427.158,312.754H407.865v-.244A7.508,7.508,0,0,1,415.374,305h11.784Z" fill="#474557"/><path d="M429.647,213.682l-1.428,84.773a1.952,1.952,0,0,1-1.985,1.919c-.048,0-.1,0-.144-.008l-7-.636a1.951,1.951,0,0,1-1.769-1.793l-4.1-52.879a.488.488,0,0,0-.974.019L410.2,299.166a1.952,1.952,0,0,1-1.951,1.879h-7.509a1.952,1.952,0,0,1-1.948-1.833l-5.257-86.018,31.236-7.809Z" fill="#474557"/><circle cx="406.991" cy="122.094" r="11.987" fill="#a0616a"/><path d="M392.462,216.2a2.178,2.178,0,0,1-.666-1.545l-.809-57.807a13.91,13.91,0,0,1,9.411-13.393c1.123-5.095,7.1-5.733,10.584-5.657a5.409,5.409,0,0,1,4.382,2.4l2.5,3.746,5.5,3.228a13.924,13.924,0,0,1,6.575,15.04l-.848,3.855a88.594,88.594,0,0,0,.829,41.32l1.7,6.5a2.2,2.2,0,0,1-2.293,2.746l-1.981-.152a2.193,2.193,0,0,1-2.016-1.971l-.328-3.278a.244.244,0,0,0-.486,0l-.317,3.174a2.2,2.2,0,0,1-2.152,1.977l-28.03.431h-.034A2.181,2.181,0,0,1,392.462,216.2Z" fill="#474557"/><path d="M407.929,129c.049,1.694,1.225,2.675,2.67,3.562a15.43,15.43,0,0,0,4.787,1.644,1.464,1.464,0,0,0,2.15-1.281l1.517-5.771a36.64,36.64,0,0,0,1.168-5.63c.365-3.665-.5-7.608-3.062-10.257s-6.994-3.592-10.059-1.55c-3.638-4.646-20.266,5.619-16.164,8.85.729.575,1.845-.153,2.771-.223a2.957,2.957,0,0,1,2.553.811c.768.939.433,2.338.75,3.51a3.277,3.277,0,0,0,4.116,2.13l.025-.008a11.24,11.24,0,0,0,2.147-1.381,2.765,2.765,0,0,1,2.408-.524c1.054.393,1.429,1.684,1.524,2.805A26.008,26.008,0,0,0,407.929,129Z" fill="#474557"/><polygon points="405.129 161.131 403.177 185.046 392.928 209.937 408.058 185.534 405.129 161.131" opacity="0.2" style="isolation:isolate"/><path d="M390.531,219.206a4.907,4.907,0,0,0,.155-7.524l6.53-16.172-8.884,1.794-4.839,15.082a4.935,4.935,0,0,0,7.038,6.82Z" fill="#a0616a"/><path d="M390.34,212.073l-5.028-1.812a2.208,2.208,0,0,1-1.374-2.645l8.3-30.367L393.5,149.8a6.257,6.257,0,1,1,12.5.576c0,.061-.007.121-.011.182l-2.259,30.051-10.57,30.122a2.2,2.2,0,0,1-2.234,1.464A2.169,2.169,0,0,1,390.34,212.073Z" fill="#474557"/><polygon points="28.112 300.024 33.485 302.657 46.2 283.187 38.27 279.3 28.112 300.024" fill="#ffb8b8"/><path d="M27.6,297.6l10.581,5.186h0a7.508,7.508,0,0,1,3.437,10.048h0l-.107.219L24.189,304.56Z" fill="#474557"/><polygon points="81.356 309.204 87.34 309.204 90.186 286.124 81.355 286.125 81.356 309.204" fill="#ffb8b8"/><path d="M79.83,305.3H91.614a7.511,7.511,0,0,1,7.51,7.509h0v.244H79.83Z" fill="#474557"/><circle cx="68.504" cy="137.937" r="11.987" fill="#ffb8b8"/><path d="M80.44,301.592a2.2,2.2,0,0,1-2.191-2.1l-4.634-61.672a.732.732,0,0,0-1.38-.315L42.594,294.09a2.206,2.206,0,0,1-2.927.946L31.4,290.9a2.2,2.2,0,0,1-.987-2.936L48.1,252.129l11.715-26.846c4.522-8.907,9.323-13.5,14.679-14.032,5.5-.549,11.362,3.229,17.942,11.551l.054.068v.086l-.977,75.336a2.186,2.186,0,0,1-1.991,2.184l-8.869,1.105C80.583,301.588,80.512,301.592,80.44,301.592Z" fill="#474557"/><path d="M55.852,229.619a5.24,5.24,0,0,0,1.156-7.956l1.807-47.76L50.03,175l-.74,46.463a5.271,5.271,0,0,0,6.562,8.158Z" fill="#ffb8b8"/><path d="M61.409,182.347l-11.8-1.341a2.351,2.351,0,0,1-2.071-2.6,2.44,2.44,0,0,1,.064-.339l3.046-11.439a6.529,6.529,0,0,1,12.97,1.512l.4,11.793a2.349,2.349,0,0,1-2.615,2.415Z" fill="#474557"/><path d="M112.229,152.283a5.144,5.144,0,0,0-.117.8l-20.966,12.1-5.1-2.934-5.432,7.113,8.516,6.07a3.906,3.906,0,0,0,4.685-.114l21.619-17.056a5.126,5.126,0,1,0-3.209-5.974Z" fill="#ffb8b8"/><path d="M90.445,165.751l-6.776,8.782a2.2,2.2,0,0,1-3.08.4,2.036,2.036,0,0,1-.24-.215l-7.671-7.966a6.1,6.1,0,0,1,7.48-9.636l9.621,5.38a2.195,2.195,0,0,1,.844,2.989,2.087,2.087,0,0,1-.178.269Z" fill="#474557"/><path d="M95.973,226.537,82.964,163.172a11.88,11.88,0,0,0-13.592-9.33l-4.339.723a11.637,11.637,0,0,0-7.555,4.714h0A16.247,16.247,0,0,0,55.051,173.1l7.181,25.7L56.9,226.327a1.952,1.952,0,0,0,2.19,2.3c2.668-.382,7.065-.927,12.116-1.224l2.736-10.554,1.113,10.387c6.2-.174,12.94.13,18.5,1.573a1.953,1.953,0,0,0,2.419-2.276Z" fill="#686de0"/><path d="M82.309,127.816a12.2,12.2,0,0,0-8.036-9.022,17.392,17.392,0,0,0-12.364.673,19.38,19.38,0,0,0-9.742,8.722,10.116,10.116,0,0,1-1.457-.8c-2.308-1.536-4.181-3.723-6.677-4.928-4.4-2.123-9.724-.711-14.009,1.64s-8.081,5.6-12.607,7.446S7.117,133.482,3.691,130A12.558,12.558,0,0,0,22.1,144.82c4.959-3.02,7.7-9.353,13.259-11.02,3.077-.922,6.382-.179,9.492.625a37.567,37.567,0,0,0,5.593,1.157,13.811,13.811,0,0,0,3.609,9.218c3.838,4.04,9.861,5.117,15.433,5.052l.117-.119c-1.706-2.554-3.053-6.095-1.174-8.524,1.854-2.4,5.511-2.045,8.351-3.107C80.73,136.624,83.024,131.978,82.309,127.816Z" fill="#474557"/><path d="M103.545,313.348H20.575a.488.488,0,0,1,0-.976h82.97a.488.488,0,0,1,0,.976Z" fill="#c7c7d3"/><path d="M446.651,313.348h-82.97a.488.488,0,0,1,0-.976h82.97a.488.488,0,0,1,0,.976Z" fill="#c7c7d3"/></svg>