<svg xmlns="http://www.w3.org/2000/svg" width="477.41" height="369" viewBox="0 0 477.41 369"><ellipse cx="238.705" cy="184.5" rx="224.036" ry="184.5" fill="#aeb1ee"/><path d="M474.41,289.188H450.179c.057-.114.121-.225.167-.345a4.183,4.183,0,0,0,.287-1.533V285.4a4.228,4.228,0,0,0-4.229-4.226H442.71a3.5,3.5,0,0,0,.146-.954V259.06l.314-.183c7.085-4.169,12.929-8.02,15.287-10.577,5.073-5.494-6.225-36.273-15.287-58.314-.692-1.688-1.372-3.322-2.031-4.89-4.405-10.485-7.849-18-7.849-18h0L394.612,151.56c-1.536-6.274-2.722-13.173-2.157-18.03a23.183,23.183,0,0,0,8.722-12.38l.066.137a9.14,9.14,0,0,0,3.348-5.982,23.789,23.789,0,0,0-.188-7.067l6.951.766-6.772-4.261,1.935-4.261H401.88c-2.984-6.334-7.772-11.956-11.91-16.74-7.871-9.1-16.53-5.633-16.53-5.633l3.542,3.9c-12.594-.866-21.646,9.1-21.646,9.1l4.329,1.733c-11.414,6.5-3.389,28.781-3.389,28.781s.144-.22.367-.6a23.1,23.1,0,0,0,5.5,9.654,151.63,151.63,0,0,1,.847,19.1h0l-35.4,15.643.047.333h-.047s-6.15,5.844-8.445,19.006q-.153.88-.28,1.8l-8.235,18.351h-.109a3.545,3.545,0,0,0-3.545,3.545h0v4.6L299.365,230a9.82,9.82,0,0,0,.135,8.328,105.3,105.3,0,0,0,7.47,12.874v29.014a3.5,3.5,0,0,0,.146.954H305.8a4.228,4.228,0,0,0-4.227,4.229v1.911a4.183,4.183,0,0,0,.287,1.533c.046.12.11.231.167.345H255.629a2.828,2.828,0,0,0,.97-1.109l6.055-12.446a2.845,2.845,0,0,0-2.558-4.088H249.439a25.111,25.111,0,0,0,6.481-4.306c7.561-7.046,8.707-18.1,8.707-18.1s-11.113.364-18.673,7.41a27.036,27.036,0,0,0-6.337,9.434,27.442,27.442,0,0,0-5.877-10.54c-7.046-7.561-18.106-8.707-18.106-8.707s.365,11.113,7.41,18.674a26.78,26.78,0,0,0,8.973,6.14H220.178a2.843,2.843,0,0,0-2.557,4.088l6.054,12.446a2.839,2.839,0,0,0,.971,1.109H182.054c.057-.114.121-.225.168-.345a4.2,4.2,0,0,0,.286-1.533V285.4a4.228,4.228,0,0,0-4.229-4.226h-3.695a3.509,3.509,0,0,0,.147-.955V258.823c11.473-.819,23.541-3.067,28.807-8.595,6.759-7.1-12.3-27.4-28.97-42.783a3.534,3.534,0,0,0-2.7-2.47c-5.158-4.674-9.923-8.755-13.4-11.674v-.131a12.429,12.429,0,0,0-7.814-8.874c-.159-1.258-.4-1.967-.744-1.967h-6.966a3.128,3.128,0,0,0-2.776,1.7c-.682-.159-10.208-2.457-9.658-7.408.571-5.135,1.142-8.559,1.142-8.559a15.153,15.153,0,0,0,1.867-1.057,11.456,11.456,0,1,0,11.252-19.28c.055-.059.111-.119.165-.179a11.452,11.452,0,0,1,9.715,16.88,11.446,11.446,0,0,0-8.285-18.582,33.654,33.654,0,0,0-26.411-54.524c-.35,0-.695.016-1.042.026a33.657,33.657,0,0,0-24.291,58.76c.286.255.579.494.872.737a33.658,33.658,0,0,1-1.96-46.746c.062-.07.128-.134.19-.2a33.655,33.655,0,0,0,11.344,51.284c.071,2.083.1,4.246.048,6.32-.022-.022-3.707-3.694-4.276.288s1.712,11.411-10.84,12.552c-2.007.183-3.984.248-5.909.265a3.845,3.845,0,0,0-.938-.835c-5.706-3.424-9.7,0-9.7,0s.166.3.431.863c-5.525.246-9.959,1.383-12.413,5.984a10.349,10.349,0,0,0-.54,1.253l-.009,0S5.549,222.84,3.267,234.252s10.84,17.687,10.84,17.687L38.844,263.6v16.618a3.509,3.509,0,0,0,.147.955h-1.32a4.229,4.229,0,0,0-4.227,4.229v1.911a4.183,4.183,0,0,0,.287,1.533c.046.12.11.231.167.345H8.805v.981H34.566a4.224,4.224,0,0,0,3.107,1.37H178.279a4.228,4.228,0,0,0,3.108-1.37h121.3a4.228,4.228,0,0,0,3.108,1.37H446.4a4.228,4.228,0,0,0,3.108-1.37h24.9ZM174.731,241.9v-2.216l1.99,1.99Zm-46.825-76.384a59.059,59.059,0,0,1,.653-7.976c.492-.13.98-.268,1.463-.419a11.2,11.2,0,0,0,1.934,8.094A39.939,39.939,0,0,0,127.906,165.511Zm-95.54,72.164a86.785,86.785,0,0,1,6.478-8.534v16.252C33.346,243.951,32.366,237.675,32.366,237.675Z" fill="none" stroke="#2d2a2e" stroke-miterlimit="10" stroke-width="6"/><path d="M233.74,255.438c7.045,7.56,7.41,18.673,7.41,18.673s-11.06-1.146-18.106-8.706-7.41-18.674-7.41-18.674S226.694,247.877,233.74,255.438Z" fill="#686de0"/><path d="M255.92,267.239c-7.56,7.046-18.673,7.41-18.673,7.41s1.146-11.059,8.707-18.105,18.673-7.41,18.673-7.41S263.481,260.193,255.92,267.239Z" fill="#686de0"/><path d="M254.041,289.679H226.233a2.847,2.847,0,0,1-2.558-1.6l-6.054-12.446a2.843,2.843,0,0,1,2.557-4.088H260.1a2.845,2.845,0,0,1,2.558,4.088L256.6,288.079A2.845,2.845,0,0,1,254.041,289.679Z" fill="#474557"/><circle cx="378.927" cy="114.744" r="23.154" fill="#ffb8b8"/><path d="M361.645,126.321s4.363,32.886-2.349,36.577,39.933,4.027,39.933,4.027-10.4-28.523-5.7-37.248Z" fill="#ffb8b8"/><path d="M433.29,167.092l-3.88,17.664-8.2,37.372-.246,2.047-2.83,23.694-1.883,15.741-1.263,10.573c-7.676,3.945-13.24,6.669-13.24,6.669s-.479-2.4-1.25-5.469c-5.388,1.615-15.357,4.3-23.805,4.83,3.077,3.429,4.49,6.65,2.573,9.027-5.787,7.167-29.68-7.846-38.037-13.445a22.666,22.666,0,0,0-.22,4.049l-6.395-4.918.633-11.316,1.067-19.148,1.341-24.012a25.4,25.4,0,0,1-1.061-3.158c-1.958-6.965-4.335-20.873-6.159-32.536-1.467-9.386-2.569-17.318-2.8-19.006l-.047-.333,35.4-15.643c2.516,5.834,14.264,7.588,14.264,7.588a39.41,39.41,0,0,0,17.362-5.8Z" fill="#e2e2ed"/><path d="M404.432,274.142s-1.5.513-3.936,1.241c-5.388,1.615-15.357,4.294-23.805,4.83-7.273.466-13.42-.655-14.544-5.4a5.017,5.017,0,0,1,1.691-5.1c4.446-4.122,16.059-5.6,25.269-6.1,2.6-.142,5.006-.208,7.009-.233,3.4-.045,5.63.025,5.63.025l.053.208Z" fill="#ffb8b8"/><path d="M359.665,92.842l-4.329-1.733s9.052-9.966,21.646-9.1l-3.542-3.9s8.659-3.466,16.53,5.633c4.138,4.784,8.926,10.406,11.91,16.74h4.637l-1.935,4.261L411.354,109l-6.951-.766a23.794,23.794,0,0,1,.188,7.068,9.14,9.14,0,0,1-3.348,5.981h0s-5.369-11.113-5.369-12.846v4.333s-4.33-3.9-4.33-6.5l-2.361,3.033L388,104.541l-14.562,4.766,2.362-3.9-9.053,1.3,3.543-4.766s-10.233,5.633-10.627,10.4a22.872,22.872,0,0,1-3.389,9.283S348.251,99.341,359.665,92.842Z" fill="#474557"/><path d="M458.457,248.3c-2.358,2.557-8.2,6.408-15.287,10.577-2.635,1.549-5.441,3.146-8.3,4.733-6.829,3.788-13.98,7.541-19.881,10.573-7.676,3.945-13.24,6.669-13.24,6.669s-.479-2.4-1.25-5.469c-1.033-4.109-2.589-9.421-4.21-11.773-.057-.082-.113-.158-.17-.233a2,2,0,0,0-1.417-.983l23.433-14.525,10.126-6.279-7.3-17.415-9.15-21.846,5.523-17.573,5.551-17.664h10.4s3.444,7.519,7.849,18c.659,1.568,1.339,3.2,2.031,4.89C452.232,212.027,463.53,242.806,458.457,248.3Z" fill="#e2e2ed"/><path d="M379.264,289.24c-5.787,7.167-29.68-7.846-38.037-13.445-1.82-1.218-2.9-1.99-2.9-1.99l7.645-10.195,2.422-3.228s2.166,1.149,5.368,3.02l.353.208c2.761,1.621,6.228,3.74,9.726,6.1,4.827,3.265,9.708,6.99,12.853,10.5C379.768,283.642,381.181,286.863,379.264,289.24Z" fill="#ffb8b8"/><path d="M353.759,263.4a14.922,14.922,0,0,0-2.55.208c-7.239,1.243-9.374,7.8-9.982,12.185a22.666,22.666,0,0,0-.22,4.049l-6.395-4.918-2.33-1.792a42.469,42.469,0,0,1-14.938-9.524,75.169,75.169,0,0,1-10.06-11.931,105.257,105.257,0,0,1-7.784-13.351,9.82,9.82,0,0,1-.135-8.328l7.919-17.649,11.575-25.794q.128-.921.28-1.8c2.3-13.162,8.445-19.006,8.445-19.006h4.7l3.142,19.006,3.905,23.612-2.737,8.924L330.27,237.9l6.042,6.562Z" fill="#e2e2ed"/><path d="M359.076,208.387l4.016,4.686c1.492-.285,3.051-.619,4.656-1l-1.154-3.691,2.821,3.291c17-4.182,38.076-12.312,38.076-12.312s-22.752,1.668-39.74-2.043a16.164,16.164,0,0,0-18.333,9.132c-1.793,4.1-1.512,7.646,4.847,7.646a41.975,41.975,0,0,0,6.408-.6Z" fill="#686de0"/><path d="M450.633,285.4v1.911a4.269,4.269,0,0,1-.592,2.163,4.231,4.231,0,0,1-3.637,2.066H305.8a4.209,4.209,0,0,1-3.942-2.7,4.183,4.183,0,0,1-.287-1.533V285.4a4.228,4.228,0,0,1,4.227-4.229H313.9v-.891a.175.175,0,0,1,.175-.176h4.23a.175.175,0,0,1,.176.175h0v.891h2.642v-.891a.176.176,0,0,1,.176-.176h4.229a.175.175,0,0,1,.176.175h0v.891h2.645v-.891a.176.176,0,0,1,.176-.176h4.229a.175.175,0,0,1,.176.175h0v.891h2.642v-.891a.176.176,0,0,1,.176-.176h4.229a.176.176,0,0,1,.177.175h0v.891H342.8v-.891a.176.176,0,0,1,.176-.176h4.23a.175.175,0,0,1,.176.175h0v.891h2.645v-.891a.176.176,0,0,1,.176-.176h4.229a.175.175,0,0,1,.176.175h0v.891h2.642v-.891a.176.176,0,0,1,.176-.176h33.125a.175.175,0,0,1,.176.175h0v.891h2.645v-.891a.176.176,0,0,1,.176-.176h4.229a.178.178,0,0,1,.177.176v.891h2.641v-.891a.176.176,0,0,1,.176-.176H405a.175.175,0,0,1,.177.175h0v.891h2.641v-.891a.176.176,0,0,1,.176-.176h4.23a.175.175,0,0,1,.176.175h0v.891h2.645v-.891a.176.176,0,0,1,.176-.176h4.229a.175.175,0,0,1,.173.176v.891h2.645v-.891a.176.176,0,0,1,.176-.176h4.229a.175.175,0,0,1,.176.175h0v.891h2.642v-.891a.176.176,0,0,1,.176-.176h4.229a.175.175,0,0,1,.176.175h0v.891H446.4a4.228,4.228,0,0,1,4.229,4.226Z" fill="#474557"/><path d="M439.311,204.908H386.9v-1.08H363.139v1.08H310.515a3.545,3.545,0,0,0-3.545,3.545h0v71.763a3.545,3.545,0,0,0,3.545,3.545h128.8a3.545,3.545,0,0,0,3.545-3.545h0V208.453a3.545,3.545,0,0,0-3.545-3.545Z" fill="#474557"/><circle cx="375.016" cy="229.962" r="7.872" fill="none" stroke="#e2e2ed" stroke-miterlimit="10" stroke-width="2"/><circle cx="372.497" cy="232.796" r="7.872" fill="#e2e2ed"/><circle cx="141.363" cy="158.675" r="11.46" fill="#474557"/><path d="M144.556,147.53a11.463,11.463,0,0,1,10.089,16.9,11.457,11.457,0,1,0-19.036-12.589A11.432,11.432,0,0,1,144.556,147.53Z" fill="#474557"/><circle cx="119.949" cy="124.987" r="33.664" fill="#474557"/><path d="M93.528,104.1a33.659,33.659,0,0,1,46.654-3.53c-.275-.261-.548-.525-.834-.779a33.663,33.663,0,1,0-44.732,50.318c.286.255.579.494.872.737A33.657,33.657,0,0,1,93.528,104.1Z" fill="#474557"/><circle cx="119.663" cy="136.684" r="21.682" fill="#a0616a"/><path d="M104.258,143.53s2.853,26.247-1.712,29.1,26.247,6.847,26.247,6.847-4.565-28.529,6.847-35.947Z" fill="#a0616a"/><path d="M131.646,168.065s8.5-3.967-3.741-2.554-22.792-4.008-22.792-4.008-3.708-3.708-4.278.286,1.711,11.411-10.841,12.552-23.964-2.282-28.529,6.277-2.282,45.646-2.282,45.646,8.558,30.81,15.4,35.375,66.757-1.712,66.757-1.712l17.117-30.811V193.17s-2.282-12.552-18.258-9.129c0,0-10.27-2.282-9.7-7.417S131.646,168.065,131.646,168.065Z" fill="#e2e2ed"/><path d="M76.853,283.443c.352-1.536.588-2.4.588-2.4l-.182-1.25-1.88-12.765-.79-5.385c6.845-2.852,8.558-15.976,8.558-15.976l.258-.154,1.168-.7v0l4.194-2.515.085-.051,1.694,1.127,3.442,2.3a40.472,40.472,0,0,0,31.868,7.3,35.073,35.073,0,0,0,7.5-2.167l8.3-2.767.259-.085.255.037,4.868.737.088.016.4.06-1.127,7.793-1.635,11.326c4.317,2.286,8.156,6.581,11.512,11.874q1.114,1.756,2.16,3.655c.907,1.638,1.773,3.341,2.6,5.085.1.208.2.419.3.63.318.684.633,1.373.938,2.066H75.341c.113-.7.227-1.36.337-2a.453.453,0,0,0,.013-.066c.041-.214.078-.422.113-.63C76.188,286.45,76.56,284.715,76.853,283.443Z" fill="#474557"/><path d="M73.447,173.771a43.78,43.78,0,0,1,3.994,25.676c-2.282,14.264,6.847,49.639,6.847,49.639l6.847-1.711s-4.565-29.67-3.424-36.517,1.142-33.664-4.564-37.087S73.447,173.771,73.447,173.771Z" fill="#474557"/><path d="M139.8,185.63l2.4,63.171,4.565,2.853s6.561-69.325,3.138-69.325h-6.966a3.139,3.139,0,0,0-3.139,3.14C139.8,185.522,139.8,185.576,139.8,185.63Z" fill="#474557"/><circle cx="87.426" cy="244.807" r="2.853" fill="#686de0"/><circle cx="144.483" cy="247.66" r="2.853" fill="#686de0"/><polygon points="101.12 109.581 101.12 131.263 106.141 131.263 112.531 124.416 111.675 131.263 133.871 131.263 132.502 124.416 135.24 131.263 138.777 131.263 138.777 109.581 101.12 109.581" fill="#474557"/><ellipse cx="97.696" cy="132.119" rx="1.712" ry="3.138" fill="#a0616a"/><ellipse cx="141.631" cy="132.119" rx="1.712" ry="3.138" fill="#a0616a"/><path d="M153.327,247.375s-25.961-4.85-27.673,3.708,28.814,4.85,28.814,4.85Z" fill="#a0616a"/><path d="M152.757,188.606s62.192,49.64,50.781,61.622-54.775,8.558-54.775,8.558l2.853-14.264,25.1-2.853-12.553-12.553-11.411,1.142Z" fill="#e2e2ed"/><path d="M60.894,271.339l7.988,6.276s5.706,17.688,14.265,12.553-7.988-23.394-7.988-23.394l-9.7-3.423Z" fill="#a0616a"/><path d="M68.882,179.477l-7.966,2.4S5.549,222.84,3.267,234.252s10.84,17.687,10.84,17.687l49.64,23.394,5.135-13.694L45.489,249.657s1.712-3.423-5.135-3.994-7.988-7.988-7.988-7.988,13.694-21.111,21.111-16.547,9.7,7.988,9.7,7.988Z" fill="#e2e2ed"/><path d="M182.508,285.4v1.911a4.2,4.2,0,0,1-.286,1.533,4.309,4.309,0,0,1-.306.63,4.231,4.231,0,0,1-3.637,2.066H37.673a4.209,4.209,0,0,1-3.942-2.7,4.183,4.183,0,0,1-.287-1.533V285.4a4.229,4.229,0,0,1,4.227-4.229h8.107v-.891a.176.176,0,0,1,.176-.176h4.229a.175.175,0,0,1,.176.175h0v.891H53v-.891a.176.176,0,0,1,.176-.176h4.229a.175.175,0,0,1,.176.175h0v.891h2.645v-.891a.176.176,0,0,1,.176-.176h4.229a.175.175,0,0,1,.177.175h0v.891H67.45v-.891a.176.176,0,0,1,.176-.176h4.23a.175.175,0,0,1,.176.175h0v.891h2.642v-.891a.175.175,0,0,1,.175-.176h4.23a.175.175,0,0,1,.176.175h0v.891H81.9v-.891a.176.176,0,0,1,.176-.176h4.229a.175.175,0,0,1,.176.175h0v.891h2.642v-.891a.176.176,0,0,1,.176-.176h33.125a.175.175,0,0,1,.176.175h0v.891h2.645v-.891a.176.176,0,0,1,.176-.176h4.229a.178.178,0,0,1,.177.176v.891h2.642v-.891a.175.175,0,0,1,.175-.176h4.23a.175.175,0,0,1,.176.175h0v.891h2.642v-.891a.175.175,0,0,1,.175-.176h4.23a.175.175,0,0,1,.176.175h0v.891h2.645v-.891a.176.176,0,0,1,.176-.176h4.229a.175.175,0,0,1,.173.176v.891h2.645v-.891a.176.176,0,0,1,.176-.176h4.229a.176.176,0,0,1,.177.175h0v.891h2.641v-.891a.176.176,0,0,1,.176-.176h4.229a.175.175,0,0,1,.177.175h0v.891h12.333a4.228,4.228,0,0,1,4.229,4.226Z" fill="#474557"/><path d="M171.186,204.907H118.778v-1.081H95.014v1.081H42.389a3.545,3.545,0,0,0-3.545,3.545v71.763a3.545,3.545,0,0,0,3.545,3.545h128.8a3.545,3.545,0,0,0,3.545-3.545V208.452A3.545,3.545,0,0,0,171.186,204.907Z" fill="#474557"/><circle cx="106.891" cy="229.961" r="7.872" fill="none" stroke="#e2e2ed" stroke-miterlimit="10" stroke-width="2"/><circle cx="104.372" cy="232.795" r="7.872" fill="#e2e2ed"/><rect x="8.806" y="289.189" width="465.604" height="0.98" fill="#474557"/></svg>